<svg width="40" height="40" viewBox="0 0 40 40" fill="none" xmlns="http://www.w3.org/2000/svg">
<path d="M20 0C8.95461 0 0 8.95461 0 20C0 31.0454 8.95461 40 20 40C31.0454 40 40 31.0454 40 20C40 8.95461 31.0454 0 20 0ZM38.6994 20C38.6994 30.3269 30.3281 38.6994 20 38.6994C9.67192 38.6994 1.30056 30.3269 1.30056 20C1.30056 9.6731 9.6731 1.30056 20 1.30056C30.3269 1.30056 38.6994 9.6731 38.6994 20Z" fill="white"/>
<path d="M29.6931 11.5146C29.9647 11.8062 30.3563 12.2766 30.5762 12.5623L34.6261 9.99177C34.3781 9.66932 34.1229 9.35252 33.8605 9.04163L31.2959 10.7373L31.1207 10.8878L31.2512 10.6973L32.3836 8.43721L31.5828 7.63641L29.3215 8.76882L29.131 8.89934L29.2827 8.72413L30.9796 6.16063C30.6809 5.90664 30.3939 5.6738 30.0282 5.39158L27.4577 9.43792C27.7834 9.68839 28.2126 10.0564 28.4866 10.3069L30.9066 9.05104L31.0619 8.93697L30.9478 9.0922L29.6931 11.5146ZM20.5033 6.38641L21.6098 3.90758L21.6804 3.68768L21.6604 3.91698L21.7768 7.22954C22.1649 7.266 22.5659 7.32009 22.961 7.38594L22.7811 2.48001C22.2284 2.41886 21.678 2.37536 21.1277 2.35184L20.0376 5.05762L19.9988 5.2587L19.96 5.05762L18.8711 2.35184C18.3208 2.37536 17.7705 2.41886 17.2178 2.48001L17.0379 7.38594C17.433 7.32009 17.834 7.26717 18.222 7.22954L18.3384 3.91698L18.3185 3.68768L18.389 3.90758L19.4955 6.38641H20.5033ZM11.5534 10.2963C12.1931 9.62253 12.5553 8.84408 11.9156 8.1009C11.5675 7.69756 10.9831 7.60936 10.4986 7.80809L10.4504 7.82691L10.4657 7.78457C10.5374 7.5929 10.5833 6.98142 10.0623 6.55927C9.80834 6.35348 9.48966 6.27705 9.16746 6.30997C8.56657 6.37112 8.10443 6.78152 6.8462 8.18439C6.46638 8.60772 5.9137 9.27564 5.58209 9.70838L9.03811 12.9868C10.1835 11.7192 10.6503 11.2477 11.5534 10.2963ZM7.04376 9.49436C7.7399 8.64299 8.47955 7.87042 8.81469 7.56468C8.92052 7.46825 9.03576 7.37183 9.17569 7.3342C9.40265 7.27188 9.63665 7.43298 9.68957 7.66581C9.74249 7.89982 9.5955 8.12206 9.43204 8.30551C9.06398 8.7206 7.71403 10.1329 7.71403 10.1329L7.04376 9.49436ZM8.39724 10.7785C8.39724 10.7785 9.71191 9.38853 10.1411 8.94403C10.3116 8.76764 10.421 8.66063 10.5386 8.60301C10.6903 8.52893 10.8561 8.51364 11.0042 8.61242C11.1501 8.71002 11.2171 8.87818 11.1806 9.04516C11.1371 9.24389 10.9748 9.43321 10.8408 9.57785C10.6597 9.77188 9.10044 11.4405 9.09808 11.4429L8.39724 10.7785Z" fill="white"/>
<path d="M31.8603 20H20V8.13969C26.5545 8.13969 31.8603 13.4454 31.8603 20V20ZM20 20V31.8603C13.4454 31.8603 8.13968 26.5546 8.13968 20H20Z" fill="white"/>
<path d="M20 8.13969V20H8.13968C8.13968 13.4454 13.4454 8.13969 20 8.13969V8.13969ZM31.8603 20C31.8603 26.5546 26.5545 31.8603 20 31.8603V20H31.8603Z" fill="#0066B1"/>
</svg>
