<svg width="18" height="18" viewBox="0 0 18 18" fill="none" xmlns="http://www.w3.org/2000/svg">
<path d="M9 0C4.02975 0 0 4.02975 0 9C0 13.9703 4.02975 18 9 18C13.9703 18 18 13.9703 18 9C18 4.02975 13.9703 0 9 0ZM9 0.585C13.647 0.585 17.4142 4.35225 17.4142 9C17.4142 13.647 13.6477 17.4142 9 17.4142C4.35225 17.4142 0.58575 13.647 0.58575 9C0.58575 4.353 4.353 0.585 9 0.585ZM8.4915 1.0575C8.244 1.068 7.9965 1.089 7.7475 1.116L7.66725 3.324C7.84385 3.29412 8.02146 3.2706 8.19975 3.2535L8.25225 1.7625L8.2425 1.65975L8.27475 1.75725L8.77275 2.874H9.22725L9.72525 1.758L9.75525 1.65975L9.74775 1.7625L9.80025 3.2535C9.97425 3.27 10.155 3.294 10.3328 3.324L10.251 1.116C10.0037 1.08814 9.75559 1.06862 9.507 1.0575L9.01725 2.27625L9 2.36625L8.98275 2.27625L8.4915 1.0575ZM13.5135 2.4255L12.3563 4.2465C12.5025 4.359 12.6952 4.52475 12.819 4.638L13.9088 4.0725L13.9777 4.02075L13.926 4.09125L13.362 5.181C13.4843 5.31225 13.6605 5.5245 13.7595 5.6535L15.582 4.4955C15.4702 4.35091 15.3552 4.20888 15.237 4.0695L14.0828 4.83L14.004 4.899L14.0625 4.81275L14.5725 3.79575L14.2125 3.43575L13.1955 3.94575L13.1093 4.00425L13.1775 3.92475L13.941 2.7705C13.806 2.6565 13.6777 2.55225 13.5135 2.4255ZM4.125 2.83875C3.855 2.8665 3.6465 3.051 3.08025 3.6825C2.8839 3.90502 2.69455 4.13363 2.5125 4.368L4.068 5.84325C4.58325 5.27325 4.7925 5.06175 5.199 4.6335C5.48625 4.32975 5.649 3.981 5.361 3.64575C5.205 3.46425 4.9425 3.4245 4.7235 3.5145L4.7025 3.522L4.71 3.5025C4.73705 3.40298 4.73419 3.29771 4.70178 3.1998C4.66936 3.1019 4.60884 3.01572 4.52775 2.952C4.47139 2.90756 4.40677 2.87474 4.33764 2.85543C4.26851 2.83612 4.19624 2.8307 4.125 2.8395V2.83875ZM4.1295 3.3C4.2315 3.27225 4.33725 3.345 4.3605 3.45C4.3845 3.555 4.3185 3.654 4.245 3.7365C4.08 3.924 3.47175 4.56 3.47175 4.56L3.17025 4.27275C3.483 3.89025 3.816 3.54225 3.96675 3.40425C4.01198 3.3571 4.06776 3.32137 4.1295 3.3ZM9 3.66225C7.6788 3.66167 6.40438 4.1513 5.42344 5.03636C4.4425 5.92142 3.82483 7.13895 3.69 8.45325V8.45475C3.60525 9.2886 3.71792 10.1307 4.01888 10.9129C4.31985 11.6952 4.80067 12.3956 5.42247 12.9576C6.04428 13.5196 6.78961 13.9274 7.59819 14.148C8.40678 14.3686 9.25594 14.3958 10.077 14.2275C11.2805 13.9801 12.3617 13.3248 13.1379 12.3724C13.9141 11.4199 14.3376 10.2287 14.337 9C14.3356 7.58504 13.7729 6.22843 12.7722 5.22797C11.7716 4.22751 10.415 3.66494 9 3.66375V3.66225ZM4.84725 3.84375C4.8825 3.84375 4.91925 3.8535 4.95225 3.876C5.01825 3.92025 5.04825 3.996 5.03175 4.071C5.01225 4.16025 4.938 4.24425 4.878 4.3095L4.09425 5.1495L3.77925 4.8495C3.77925 4.8495 4.3695 4.2255 4.563 4.02525C4.6395 3.94575 4.689 3.89775 4.7415 3.8715C4.77402 3.85461 4.80988 3.84514 4.8465 3.84375H4.84725ZM9 4.3635C9.60907 4.36281 10.2123 4.48226 10.7751 4.71503C11.338 4.94779 11.8494 5.28928 12.28 5.71996C12.7107 6.15064 13.0522 6.66203 13.285 7.22487C13.5177 7.78771 13.6372 8.39093 13.6365 9H9V13.6365C8.39093 13.6372 7.78771 13.5177 7.22487 13.285C6.66203 13.0522 6.15064 12.7107 5.71996 12.28C5.28928 11.8494 4.94779 11.338 4.71503 10.7751C4.48226 10.2123 4.36281 9.60907 4.3635 9H9V4.3635Z" fill="#4659E4"/>
</svg>
